<svg width="1975" height="1202" viewBox="0 0 1975 1202" fill="none" xmlns="http://www.w3.org/2000/svg">
<g style="mix-blend-mode:lighten">
<path d="M874.5 844L343.5 1200.5H1193.5L1250 989.5L874.5 844Z" fill="#A775CE"/>
<path d="M621 358L1367.5 444.5L1250 1H874.5L621 358Z" fill="#DBA2EA"/>
<path d="M1823 1200.5L1771.5 815.5L1250 989.5L1550.5 1200.5H1823Z" fill="#B9B6E5"/>
<path d="M1550.5 1200.5L1250 989.5L1193.5 1200.5H1550.5Z" fill="#B4B0E3"/>
<path d="M1367.5 444.5L874.5 844L1250 989.5L1771.5 815.5L1367.5 444.5Z" fill="#EAF2FF"/>
<path d="M621 358V388.5L874.5 844L1367.5 444.5L621 358Z" fill="#ECC4FF"/>
<path d="M1250 1L1367.5 444.5L1518 1H1250Z" fill="#ECC2FF"/>
<path d="M343.5 693.5L874.5 844L621 388.5L343.5 693.5Z" fill="#DBADE9"/>
<path d="M360 358L343.5 693.5L621 388.5V358H360Z" fill="#CC75D8"/>
<path d="M360 358L1.5 313.5V510.5L343.5 693.5L360 358Z" fill="#DB8EED"/>
<path d="M250 1L360 358H621L874.5 1H250Z" fill="#C759D4"/>
<path d="M1.5 313.5L360 358L250 1H1.5V313.5Z" fill="#DB76F0"/>
<path d="M250 1200.5L343.5 693.5L1.5 844V1200.5H198H250Z" fill="#DCADF7"/>
<path d="M343.5 693.5L1.5 510.5V844L343.5 693.5Z" fill="#ECC4FF"/>
<path d="M1973.5 1013L1771.5 815.5L1823 1200.5H1973.5V1013Z" fill="#7F75C7"/>
<path d="M1771.5 815.5L1973.5 1013V787.5L1771.5 815.5Z" fill="#A5A0DB"/>
<path d="M1973.5 548L1856 388.5L1771.5 815.5L1973.5 787.5V548Z" fill="#B9B5E5"/>
<path d="M1856 388.5L1367.5 444.5L1771.5 815.5L1856 388.5Z" fill="#D2CBF0"/>
<path d="M1518 1L1367.5 444.5L1856 388.5L1691.5 1H1518Z" fill="#CE95E6"/>
<path fill-rule="evenodd" clip-rule="evenodd" d="M343.5 693.5L250 1200.5H343.5L874.5 844L343.5 693.5Z" fill="#D092DF"/>
<path d="M1691.5 1L1856 388.5L1973.5 358V1H1691.5Z" fill="#B480E2"/>
<path d="M1973.5 358L1856 388.5L1973.5 548V358Z" fill="#AB8BD5"/>
<path d="M1.5 313.5L360 358M1.5 313.5V1H250M1.5 313.5V510.5M360 358L250 1M360 358L343.5 693.5M360 358H621M250 1H1250M250 1H874.5M343.5 693.5L1.5 510.5M343.5 693.5L250 1200.5M343.5 693.5L1.5 844M343.5 693.5L874.5 844M343.5 693.5L621 388.5M1.5 510.5V844M250 1200.5H198H1.5V844M250 1200.5H343.5M343.5 1200.5L874.5 844M343.5 1200.5H1193.5M874.5 844L621 388.5M874.5 844L1367.5 444.5M874.5 844L1250 989.5M621 388.5V358M621 358L1367.5 444.5M621 358L874.5 1M1367.5 444.5L1250 1M1367.5 444.5L1518 1M1367.5 444.5L1856 388.5M1367.5 444.5L1771.5 815.5M1250 1H1518M1250 1H874.5M1518 1H1691.5M1856 388.5L1691.5 1M1856 388.5L1973.5 358M1856 388.5L1973.5 548M1856 388.5L1771.5 815.5M1691.5 1H1973.5V358M1973.5 358V548M1973.5 548V787.5M1973.5 1013L1771.5 815.5M1973.5 1013V787.5M1973.5 1013V1200.5H1823M1771.5 815.5L1973.5 787.5M1771.5 815.5L1823 1200.5M1771.5 815.5L1250 989.5M1823 1200.5H1550.5M1250 989.5L1550.5 1200.5M1250 989.5L1193.5 1200.5M1550.5 1200.5H1193.5" stroke="#DACED8" stroke-opacity="0.44" stroke-width="2"/>
</g>
</svg>
